<svg width="54" height="54" viewBox="0 0 54 54" fill="none" xmlns="http://www.w3.org/2000/svg">
<path d="M27 30.375C25.3312 30.375 23.6999 29.8802 22.3124 28.953C20.9248 28.0259 19.8434 26.7081 19.2048 25.1664C18.5662 23.6246 18.3991 21.9281 18.7246 20.2914C19.0502 18.6547 19.8538 17.1513 21.0338 15.9713C22.2138 14.7913 23.7172 13.9877 25.3539 13.6621C26.9906 13.3366 28.6871 13.5037 30.2289 14.1423C31.7706 14.7809 33.0884 15.8623 34.0155 17.2499C34.9427 18.6374 35.4375 20.2687 35.4375 21.9375C35.4348 24.1744 34.545 26.319 32.9633 27.9008C31.3815 29.4825 29.2369 30.3723 27 30.375V30.375ZM27 16.875C25.9987 16.875 25.02 17.1719 24.1874 17.7282C23.3549 18.2845 22.706 19.0751 22.3229 20.0002C21.9397 20.9252 21.8394 21.9431 22.0348 22.9252C22.2301 23.9072 22.7123 24.8092 23.4203 25.5172C24.1283 26.2252 25.0303 26.7074 26.0124 26.9027C26.9944 27.0981 28.0123 26.9978 28.9373 26.6146C29.8624 26.2315 30.653 25.5826 31.2093 24.7501C31.7656 23.9176 32.0625 22.9388 32.0625 21.9375C32.0612 20.5953 31.5274 19.3084 30.5783 18.3593C29.6291 17.4101 28.3423 16.8763 27 16.875V16.875Z" fill="#FF0000"/>
<path d="M27 50.625L12.7643 33.8361C12.5665 33.584 12.3707 33.3303 12.177 33.075C9.7453 29.8718 8.43163 25.9592 8.43752 21.9375C8.43752 17.0144 10.3932 12.293 13.8744 8.81183C17.3555 5.33069 22.0769 3.375 27 3.375C31.9231 3.375 36.6445 5.33069 40.1257 8.81183C43.6068 12.293 45.5625 17.0144 45.5625 21.9375C45.5684 25.9574 44.2553 29.8682 41.8247 33.0699L41.823 33.075C41.823 33.075 41.3168 33.7399 41.2408 33.8293L27 50.625ZM14.8703 31.0416C14.8736 31.0416 15.2651 31.5613 15.3546 31.6727L27 45.4073L38.6606 31.6541C38.7349 31.5613 39.1298 31.0382 39.1315 31.0365C41.1179 28.4194 42.1914 25.2231 42.1875 21.9375C42.1875 17.9095 40.5874 14.0465 37.7392 11.1983C34.891 8.35011 31.028 6.75 27 6.75C22.972 6.75 19.109 8.35011 16.2608 11.1983C13.4126 14.0465 11.8125 17.9095 11.8125 21.9375C11.809 25.2252 12.8837 28.4233 14.872 31.0416H14.8703Z" fill="#FF0000"/>
</svg>
